<?xml version="1.0" encoding="UTF-8"?>
<svg id="Layer_1" data-name="Layer 1" xmlns="http://www.w3.org/2000/svg" version="1.1" viewBox="0 0 600 600">
  <defs>
    <style>
      .cls-1 {
        fill: #b85c3d;
        stroke-width: 0px;
      }
    </style>
  </defs>
  <path class="cls-1" d="M149.9,382.5c-.9-5.8-3-9.9-5.3-13.9-12.4-22.3-24.8-44.5-37.3-66.8-3.9-6.9-7.9-13.9-9-21.8-.7-4.9-1.1-10.2,0-14.9,3.5-14.6,17.4-21.6,31.6-16.4,7.5,2.7,13.4,7.6,18,14,4,5.5,7.6,11.2,11.4,16.8,10.9,16.4,21.6,33,32.7,49.3,11.8,17.3,26,32.7,41,47.2,20.8,20,32.4,44.7,38.4,72.6,5,23.5,5.3,47.2,4.2,71-.8,16.8-2,33.6-3.1,50.3,0,1.1-.3,2.3-.4,3.4-4.1,1.5-103,2.1-115.2.7-.1-1.9-.4-3.9-.4-5.9-.3-12.7-.4-25.5-.9-38.2-.7-20.2-8.4-37.3-22.6-51.8-21.5-21.7-42.8-43.6-63.8-65.7-8.6-9.1-16.5-19-22.1-30.3-6.2-12.5-8.4-26.1-9.6-39.8-1.7-20-3.3-40.1-4.1-60.1-1-23.3,1-46.4,8.3-68.7,15.3-46.8,30.7-93.6,46.1-140.3.8-2.6,1.9-5.1,3.2-7.5,3.2-6.1,8.5-9.1,15.2-8.7,6.7.4,11.4,4.3,13.8,10.7,2.2,5.8,2.4,11.7,1,17.7-5.7,24.3-11.5,48.5-17.2,72.7-4.7,20.1-9.5,40.2-13.8,60.4-2,9.4-2.7,19.1-4.3,28.6-.9,5.5-2.6,10.9-3.5,16.4-2.4,14,1.1,26.9,7.9,39,8.3,14.8,16.8,29.6,25.3,44.3,7.6,13.2,17.2,24.7,30.1,33.2,1.1.7,2.3,1.3,4.6,2.6Z"/>
  <path class="cls-1" d="M449.9,383c2.3-1.3,3.8-2,5.1-2.9,11.8-8.1,21.2-18.6,28.5-30.9,9.3-15.8,18.5-31.7,27.3-47.8,7.8-14.2,10.1-29.3,5.9-45.4-2.1-7.8-3.4-15.9-4.3-23.9-1.8-16-6-31.5-9.6-47.1-7.4-31.8-15-63.5-22.5-95.3-1.4-5.9-2.3-11.8-1.3-17.8.8-4.5,2.4-8.5,6.1-11.5,8.3-6.7,19.9-4.2,24.3,5.6,3.2,7,5.6,14.4,8,21.7,12.3,37,24.2,74.2,37,111,10.4,30.1,13.8,60.9,12,92.5-1.1,18.7-2.7,37.4-4.1,56.1-1.6,21.8-10.2,40.5-24.3,57.1-17.3,20.3-36.1,39.3-55,58.1-6,6-12,12.1-17.9,18.2-12.9,13.2-19.2,29.3-20.1,47.5-.7,13.1-.7,26.3-1,39.4,0,2.1,0,4.1,0,6.6h-115.4c-.3-1.7-.7-3.1-.8-4.6-1.3-24.9-3-49.8-3.7-74.7-.5-20.8,2.5-41.2,8.4-61.2,6.4-21.3,17.1-40,32.9-55.8,7.7-7.6,15.3-15.3,22.6-23.3,11.5-12.6,20.8-26.9,30.3-41,11.5-17.1,23-34.3,34.6-51.5,3.6-5.4,8.5-9.4,14.4-12.3,4.4-2.1,9.1-3.3,14-2.7,12.7,1.6,20.9,10.4,21.5,23.3.4,7.7-1.4,15-5,21.8-5.3,9.9-10.9,19.6-16.4,29.3-8.2,14.6-16.5,29.3-24.7,44-2.9,5.2-5.5,10.5-7,17.5Z"/>
  <path class="cls-1" d="M299.2,217.9c-.9,3.1-1.8,6.3-2.7,9.4-9.3,31.1-18.5,62.2-28,93.2-1.5,4.9-3.5,10-6.6,14-10.2,13.3-29.2,13.6-40.4,1.1-1.4-1.6-2.7-3.3-3.9-5-16-24.4-31.9-48.8-47.8-73.3-8-12.3-12.9-25.6-11.8-40.4.5-6.1,1.4-12.3,2.9-18.3,10.4-40.6,21-81.1,31.6-121.7.5-1.9,1.1-3.7,1.8-5.5,2.7-6.3,7.9-8.8,14.4-8.8,6.1,0,10.7,3,13.2,8.7,2.9,6.5,2.7,13.2,1,19.9-4,15.5-8.1,31-12.2,46.5-4.8,17.9-9.4,35.9-14.4,53.7-3.8,13.6-2.2,26.5,4.8,38.6,7.3,12.5,15.1,24.7,22.7,37,4,6.4,8.1,12.7,12.2,19,.4.6,1,1.1,2.2,2.5.9-2.4,1.6-4.2,2.1-6.1,8.4-27.9,16.8-55.8,25.2-83.8,4.1-13.7,8.1-27.4,12.5-41,1.6-4.9,3.6-9.8,6-14.4,3.2-6.1,8.6-9.3,15.6-9.1,7.1.2,12.4,3.4,15.9,9.8,3.9,7.1,7,14.5,9.3,22.4,11.4,38.7,23.1,77.3,34.8,116,.6,2,1.4,3.9,2.4,6.9,1.8-2.5,3-4.1,4.1-5.9,9.4-14.6,18.8-29.3,28-44,4.8-7.7,9.1-15.7,11-24.8,1.3-5.9,1.6-11.9,0-17.8-6.1-23-12.2-45.9-18.2-68.9-3.2-11.9-6.3-23.9-9.3-35.9-1.5-6.2-2-12.5,0-18.8,3.7-11.3,15.2-12.5,22.6-8.2,3.6,2.1,5.4,5.5,6.5,9.3,2.3,8,4.5,16,6.6,24,8.6,33.1,17.2,66.2,25.7,99.2,3.2,12.5,4.4,25.1,1.3,37.8-2,8-5.5,15.3-9.9,22.1-15.8,24.3-31.8,48.5-47.7,72.7-4.7,7.2-10.6,12.7-19.5,14.2-12.8,2.1-24.9-4.2-29.2-16.5-4.3-12.2-7.8-24.6-11.6-37-7-23.3-13.9-46.6-20.9-69.9-.3-1-.9-2-1.3-3-.4,0-.9,0-1.3.1Z"/>
  <path class="cls-1" d="M497.6,234.9c-19.7-5.4-22-5.2-41.7,2.1.4-2.6.7-5.1,1.1-7.5,1.4-10.3.5-20.5-2-30.5-10.6-42.7-21.4-85.4-32-128-1.7-6.9-3.3-13.9-4.8-20.9-1.1-5.2-.4-10.4,1.6-15.3,2.7-6.4,7.2-10.4,14.3-10.9,7.3-.5,12.2,3.4,15.3,9.4,1.8,3.6,3,7.6,3.9,11.5,13.9,58.6,27.7,117.2,41.5,175.8,1.1,4.6,1.9,9.3,2.8,14.3Z"/>
  <path class="cls-1" d="M145.1,238.1c-14.3-7.9-27.7-8.9-42.3-2.6.8-4.7,1.2-8.3,2-11.8,9.4-40.2,18.7-80.4,28.2-120.6,4.4-18.6,8.8-37.2,13.4-55.7,1.1-4.5,2.4-9,4.2-13.2,2.9-6.9,8.8-10.5,15.3-10.2,4.7.2,8.5,2.3,11.4,6,4,5.1,5.8,11,4.8,17.4-1.1,7-2.7,14-4.4,20.9-10.6,42.7-21.4,85.3-32,128.1-3.3,13.4-5.2,26.9-.7,41.8Z"/>
  <path class="cls-1" d="M228.4,244.8c-8.9-10.9-16.5-21.9-18.4-35.8-.8-5.6.1-11.1,1.6-16.6,5.3-19,10.5-37.9,15.7-56.9,1.5-5.4,3.7-9.8,10.1-10.3,5.8-.5,10.5,2.9,13.3,9.2,2.1,4.6,2.3,9.4,1.3,14.2-2.3,10.4-4.7,20.7-7.2,31-4.8,19.7-9.8,39.3-14.7,59-.5,2-1.2,4-1.8,6.2Z"/>
  <path class="cls-1" d="M372.6,245.9c-.8-2-1.2-2.6-1.4-3.3-7.5-30.3-15.1-60.6-22.5-90.9-1.5-6.3-1.9-12.7,1.5-18.6,1.2-2.1,2.8-4.2,4.8-5.6,6.5-4.7,14.1-2.5,16.7,5.2,2.3,6.5,4,13.3,5.9,19.9,3.7,13.4,7.2,26.8,11.2,40.1,3.4,11.6,1.9,22.5-4.1,32.8-3.8,6.5-7.7,12.9-12.2,20.4Z"/>
  <metadata>
    <sfw xmlns="http://ns.adobe.com/SaveForWeb/1.0/">
      <slices/>
      <sliceSourceBounds x="33.01" y="25.22" width="533.99" height="550.93" bottomLeftOrigin="true"/>
    </sfw>
  </metadata>
</svg>