<?xml version="1.0" encoding="UTF-8"?>
<svg id="Layer_1" data-name="Layer 1" xmlns="http://www.w3.org/2000/svg" version="1.1" viewBox="0 0 1125 72">
  <defs>
    <style>
      .cls-1 {
        fill: #db3b35;
      }

      .cls-1, .cls-2 {
        stroke-width: 0px;
      }

      .cls-2 {
        fill: #fefcfc;
      }
    </style>
  </defs>
  <path class="cls-2" d="M70,72h-23c4.6-2.1,7-6.4,10.1-10,.7-.8,1-2.2,1-3.3,0-7.5,1.9-15.2-2.4-22,.9-2.4,2.3-4.5,2.4-6.7.3-5.8.1-11.6.1-17.4-2.2-2.6-4.4-4.9-6.3-7.4-2.5-3.2-5.7-4.2-9.6-4.2-12.1,0-24.3,0-36.4,0C3.6,1,1.7,1.5,0,3V0C266.3,0,532.7,0,799,0c-3.1,3.1-6.3,6.2-9.5,9.2-2.5,2.3-3.4,5.2-3.4,8.5,0,16.1,0,32.2,0,48.3,0,2.2.2,4.3,1.8,6h-13c.3-1.8.8-3.5.8-5.3,0-14.5-.3-29,.2-43.4.3-7.4-2-13.2-7.1-18.2-.2-.2-.4-.5-.6-.8-1.8-2.1-4-3.4-6.9-3.2-3.7.1-7.3,0-11,0-5.3,0-10.7-.8-15.2,3.4-3.3-3.6-7.2-3.5-11.3-3.4-7.8.1-15.6,0-23.5,0-1.8,0-3.5.3-5.3.4-.2,1.3-.5,2.1-.5,2.9,0,21.1,0,42.3.2,63.4,0,1.4.7,2.8,1.1,4.2h-44c2.6-4.2,1-8.6,1.2-13.5-10.2-1.3-20,.2-29.5-.9-1.9-5.8-1.9-9.7.2-14.2,9.5-.8,19.3.3,28.8-.6,1.3-6.9,1.3-8.1-.6-13.3-9.5,0-19.2-.2-29.3-.3-.4-5.2-.5-9.6.6-14.5,5.2,0,10,.2,14.8,0,4.9-.2,9.9.9,15-.6,0-4.6.9-8.8-.9-13.2-14.5,0-28.7-.4-43.1.3-.2,2-.4,3.3-.4,4.7,0,20.3-.2,40.6-.1,60.9,0,1.7.9,3.4,1.4,5.1h-13c.4-1.9,1-3.8,1.1-5.7,0-20,0-40,0-59.9,0-1.6-.2-3.2-.4-5.2h-13.3c-.1,9.4-.2,18.4-.3,27.2-6.2,1.6-26,1.3-30.1-.5V2.9c-5-.8-9.4-1.8-13.5.5-.2.8-.4,1.1-.4,1.5,0,21-.1,42,0,62.9,0,1.4.6,2.8,1,4.3h-32c.4-2.4,1.1-4.8,1.1-7.3,0-14.6,0-29.3,0-43.9,0-1.7.3-3.5.5-5.8h18.2c1.4-4.8,1.3-9,.4-14.1-16.3,0-32.2,0-48.1,0-.9,0-1.8.6-3.1,1.1.2,4.1-.8,8.2.7,12.7,5.6.2,11.1.3,17.1.5.2,2.2.4,3.8.4,5.4,0,15.1.1,30.3,0,45.4,0,2.2.1,4.3,1.8,6h-63c.4-1.4,1.2-2.8,1.2-4.2.3-5.9.4-11.9.4-17.8,0-6.9,0-13.9,0-20.8-.1-5.6-.5-11.2-.7-16.3-2.4-3-4.4-5.4-6.4-7.9-2.1-2.6-4.6-4-8.1-3.9-10.5.2-21,0-31.4,0-1.3,0-2.6.3-4.3.5-.2,1.9-.6,3.7-.6,5.4,0,20,0,39.9,0,59.9,0,1.8.6,3.5,1,5.3h-12c.3-1.6.8-3.2.8-4.8,0-20.3,0-40.6,0-60.8,0-1.6-.3-3.2-.5-5.1h-12.9c-.1,2-.4,3.6-.4,5.2,0,20.1,0,40.2,0,60.3,0,1.7.7,3.5,1.1,5.2h-53c2.5-2.7,4.9-5.4,7.4-8,2.1-2.2,3-4.7,3-7.7,0-11.6-.5-23.3,0-34.9.3-7.2-2-12.4-7.1-17.1-2.4-2.2-4.8-3.4-7.9-3.4-12.8,0-25.6,0-38.4,0-1.3,0-2.5.4-4.1.6-.2,3-.6,5.6-.6,8.2,0,18.8,0,37.6,0,56.4,0,1.9.5,3.8.8,5.8h-22c2.8-3,5.9-5.8,8.4-9,1.3-1.7,2.4-4.2,2.5-6.3.2-13.6.1-27.3,0-40.9,0-3.9-7.4-13.3-11.1-14.5-.9-.3-2-.3-3-.3-10,0-20-.1-29.9.1-2,0-4.4.9-5.8,2.3-3.1,2.9-5.7,6.4-8.2,9.4,0,14.9,0,29.2,0,43.5,0,1.9.5,4.2,1.6,5.6,2.9,3.6,6.3,6.8,9.5,10.1h-33c2.5-2.4,5-4.8,7.6-7.1,2.9-2.7,3.9-6,3.8-9.9-.1-10.6,0-21.3,0-32,0-10.7,0-10.6-7-18.6-2.2-2.4-4.5-3.6-7.8-3.5-8.3.2-16.7.6-25,0-6.3-.5-10.5,1.8-14,6.6-.9,1.2-2,2.3-2.7,3.6-.7,1.4-1.5,3.1-1.5,4.6-.1,13.6-.2,27.3,0,40.9,0,2,.9,4.3,2.1,5.9,2.6,3.4,5.7,6.3,8.6,9.5h-23c.6-1.1,1.7-2.2,1.8-3.3.2-3.1,0-6.3,0-9.9-2-.3-3.5-.6-5.1-.7-7.2,0-14.3,0-21.5-.1-1.3,0-2.5-.3-4.1-.5-.1-1.6-.3-2.9-.3-4.2,0-15,0-30,0-44.9,0-2.2-.4-4.5-.6-7h-12.7c-.3,1.9-.7,3.4-.7,5,0,20.3,0,40.6,0,60.9,0,1.6.7,3.2,1,4.7Z"/>
  <path class="cls-2" d="M867,72c-7.7,0-15.3,0-23,0,.4-1.9,1.3-3.8,1.3-5.6,0-14.3-.4-28.6.2-42.8.4-7.9-1.7-14.3-7.2-19.7-1.4-1.4-2.9-2.6-4.3-3.9,97,0,194,0,291,0v72h-2c2-4.3,1-8.6.8-13.8-5.2,0-10-.2-14.7-.2-5,0-9.9,0-15.2,0-1-5.1-1.3-9.6.1-14.6,10-.1,19.7-.2,29.4-.3.9-4.8,1-8.8-.1-13.1-2-.1-3.6-.3-5.2-.3-6.2,0-12.3,0-18.5,0-2,0-4.1-.5-6.5-.8,0-4.9-.5-9.1.6-13.5,10.1-1.4,20.1.4,30.1-1V1.3c-14.7-.7-29-.3-43.8-.2-.3,2.2-.7,3.9-.7,5.7,0,16.1-.2,32.3-.1,48.4,0,5.6.5,11.2.8,16.8h-12c.3-2.1.8-4.2.8-6.3,0-15.6,0-31.3,0-46.9,0-3.9-1.1-7.1-3.8-10-1.1-1.2-2.1-2.6-3.1-3.9-2-2.7-4.6-4-8.1-4-10.5.1-21,0-31.5,0-1.3,0-2.6.3-4.5.6-.2,2.2-.7,4.2-.7,6.3,0,16.3-.1,32.6,0,48.9,0,5.1.5,10.2.8,15.3h-12c.4-1.6,1-3.2,1-4.8,0-20.7,0-41.3,0-62,0-1.3-.4-2.5-.6-4.1h-12.6c-.2,1.7-.6,3.3-.6,4.9,0,20.2,0,40.3,0,60.5,0,2.1.4,3.9,1.9,5.4h-14c1.7-1.7,1.8-3.8,1.8-6,0-19.6,0-39.3,0-58.9,0-1.9-.5-3.8-.8-6.1-4.5,0-8.6-.8-13.2.8v27.2c-9.9,1.8-19.3.2-29.3.7-.4-2-1-3.8-1.1-5.7-.1-5.5,0-11,0-16.5,0-1.4-.2-2.9-.4-4.4-4.5-1.4-8.5-1.3-12.8-.2-.2,1.5-.6,2.7-.6,4,0,4.6.2,9.3.2,13.9,0,8.8-.3,17.6-.3,26.4,0,6.8-.1,13.6,0,20.4,0,1.5,1.1,3,1.7,4.5h-23c2.7-2.7,5.4-5.3,8-8.1,3.4-3.5,3.5-7.6,2.4-12.3-4.1-1.3-8.2-.6-12.4-.5-.7,1.9-1.3,3.6-2.1,5.7-7.6,2.4-15.6.8-23.5,1.1-1.6,0-3.3-1-5.4-1.6-.4-13.5-.5-26.5.2-40.3,2.4-.4,4.4-1,6.5-1.1,5.2-.1,10.3,0,15.5,0,6.4,0,6.5,0,8.4,6,0,.3.5.5.8.8h11.6c1.3-3.8,1.8-7.3-.4-10.3-3-4.1-5.6-8.8-11-10.4-.5-.1-1,0-1.5,0-10,0-20,0-30,.1-1.9,0-4.1.7-5.5,1.8-2.5,2.1-4.8,4.7-6.7,7.4-1.2,1.7-2,3.9-2,6-.2,13.5-.2,27,0,40.5,0,1.9.6,4.1,1.8,5.5,2.8,3.4,6.1,6.5,9.2,9.7Z"/>
  <path class="cls-1" d="M696,72c-.4-1.4-1.1-2.8-1.1-4.2-.1-21.1-.2-42.3-.2-63.4,0-.8.3-1.6.5-2.9,1.7-.2,3.5-.4,5.3-.4,7.8,0,15.6,0,23.5,0,4.1,0,8-.1,11.3,3.4,4.5-4.2,9.9-3.4,15.2-3.4,3.7,0,7.3.1,11,0,2.9-.1,5.1,1.1,6.9,3.2.2.2.4.6.6.8,5.1,5,7.4,10.8,7.1,18.2-.5,14.5-.2,28.9-.2,43.4,0,1.8-.6,3.5-.8,5.3h-12c-.4-2.1-1-4.2-1-6.3,0-9.6,0-19.3,0-28.9,0-5.2,0-10.3-.1-15.5-.2-4.6-2-6.2-6.6-6.4-1.5,0-3,0-4.5,0-6.8,0-8.8,2.1-8.8,8.9,0,13.6.1,27.3,0,40.9,0,2.4-.7,4.8-1.1,7.2h-11c-.6-1.8-1.6-3.7-1.6-5.5-.2-13.9-.1-27.9-.2-41.8,0-2.7-.5-5.5-.8-8.1-6.4-2.4-12.2-1.6-18.6-1.2,0,2,0,3.4,0,4.8,0,15.1,0,30.2,0,45.3,0,2.3.1,4.7-1.8,6.5h-11Z"/>
  <path class="cls-1" d="M0,3c1.7-1.5,3.6-2,5.9-2,12.1,0,24.3.1,36.4,0,3.9,0,7.1.9,9.6,4.2,1.9,2.5,4.1,4.8,6.3,7.4,0,5.8.2,11.6-.1,17.4-.1,2.2-1.5,4.3-2.4,6.7,4.4,6.8,2.5,14.5,2.4,22,0,1.1-.4,2.4-1,3.3-3.1,3.6-5.5,7.9-10.1,10H2c-.7-.7-1.3-1.3-2-2C0,47.7,0,25.3,0,3ZM15.5,29.8c8.5,0,16.5,0,24.5,0,1.2,0,2.7-.8,3.4-1.8,2.2-2.9,1.8-6.4.9-9.6-.9-3.1-3.8-3.4-6.6-3.4-6.7,0-13.3,0-20,0-.9,0-1.9.4-3.6.7.4,4.6-.9,9.1,1.4,14ZM15.6,58.2c9.3-.6,18.7,1,27.8-1,1.7-4.9,2.4-9-1.3-13.5-8.2,0-16.8-.2-25.3-.2-.8,0-1.6.9-2.7,1.6.4,4.3-.9,8.6,1.5,13.1Z"/>
  <path class="cls-1" d="M834,0c1.4,1.3,2.9,2.6,4.3,3.9,5.5,5.4,7.6,11.7,7.2,19.7-.7,14.2-.1,28.5-.2,42.8,0,1.9-.8,3.8-1.3,5.6h-11c-.4-1.9-1.1-3.8-1.2-5.7-.2-3.3.1-6.6,0-9.9,0-1.7-.6-3.4-.9-5.3h-28.9c-2.2,2.1-1.5,4.5-1.7,6.8-.3,4.7,1,9.6-1.2,14.1h-11c-1.6-1.7-1.8-3.8-1.8-6,0-16.1,0-32.2,0-48.3,0-3.3.9-6.2,3.4-8.5,3.2-3,6.3-6.1,9.5-9.2,11.7,0,23.3,0,35,0ZM830.3,15.7c-1.5-.6-2.5-1.2-3.4-1.2-7-.2-13.9-.4-20.9-.2-2.7,0-5.2,2-5.6,5-.7,5.6-.4,11.2-.1,16.5,4.6,1.5,25.5,1.6,31.1.2,0-6.5,1.5-13.3-1.1-20.2Z"/>
  <path class="cls-1" d="M262,72c-.3-1.9-.8-3.8-.8-5.8,0-18.8,0-37.6,0-56.4,0-2.6.4-5.2.6-8.2,1.6-.2,2.8-.6,4.1-.6,12.8,0,25.6,0,38.4,0,3.1,0,5.5,1.2,7.9,3.4,5.2,4.7,7.5,9.9,7.1,17.1-.6,11.6-.2,23.3,0,34.9,0,3-.9,5.5-3,7.7-2.5,2.6-4.9,5.3-7.4,8h-47ZM275.9,15.2c-.3,1.3-.7,2.1-.7,2.9,0,12.1-.1,24.3-.1,36.4,0,1.1.6,2.1,1.1,3.7,9.6-1,19.2,1.3,28.4-1.3.5-2.2,1-3.6,1-5.1,0-10.2.1-20.3,0-30.5,0-2.3-.4-4.7-3.4-6.1h-26.3Z"/>
  <path class="cls-1" d="M204,72c-3.2-3.3-6.6-6.5-9.5-10.1-1.1-1.4-1.6-3.7-1.6-5.6-.1-14.3,0-28.6,0-43.5,2.6-3,5.1-6.5,8.2-9.4,1.4-1.3,3.8-2.2,5.8-2.3,10-.2,20-.1,29.9-.1,1,0,2,0,3,.3,3.7,1.2,11.1,10.6,11.1,14.5.1,13.6.2,27.3,0,40.9,0,2.1-1.1,4.6-2.5,6.3-2.5,3.2-5.6,6-8.4,9h-36ZM207,16.6c0,12.9,0,24.9,0,36.9,0,3.2,1.5,4.4,4.8,4.5,6.7.1,13.3,0,20,0,1.4,0,2.8-.8,4.8-1.4.8-13.4.4-26.6.3-39.3-4.6-2.6-10.9-3.1-24.7-2.3-1.7.1-3.3,1-5.2,1.7Z"/>
  <path class="cls-1" d="M135,72c-2.9-3.1-6-6.1-8.6-9.5-1.2-1.6-2.1-3.9-2.1-5.9-.2-13.6,0-27.3,0-40.9,0-1.5.8-3.2,1.5-4.6.7-1.3,1.8-2.4,2.7-3.6,3.5-4.7,7.7-7.1,14-6.6,8.3.6,16.6.2,25,0,3.3,0,5.7,1.1,7.8,3.5,7.1,8,7.1,7.9,7,18.6,0,10.7,0,21.3,0,32,0,3.9-.9,7.2-3.8,9.9-2.5,2.3-5,4.7-7.6,7.1h-36ZM139.5,56.7c3.5,1.4,16.2,2.1,23.9,1.2,1.5-.2,3-1,4.9-1.7.7-13.5.8-26.6-.3-40.1-8.5-2.1-16.6-.8-24.7-1.1-1.5,0-3,1-4.2,1.4-1.7,5.5-1.4,35.7.3,40.3Z"/>
  <path class="cls-1" d="M541,72c-.3-1.4-1-2.8-1-4.3,0-21,0-42,0-62.9,0-.3.2-.6.4-1.5,4.1-2.3,8.5-1.2,13.5-.5v25c4.1,1.8,23.8,2.1,30.1.5.1-8.8.2-17.9.3-27.2h13.3c.2,2,.4,3.6.4,5.2,0,20,0,40,0,59.9,0,1.9-.7,3.8-1.1,5.7h-11c-.6-1.6-1.6-3.2-1.8-4.9-.3-3.8,0-7.7,0-11.5,0-3.8,0-7.6,0-11.8-9.2-1.1-17.8-.4-26.4-.5-1.2,0-2.4.7-3.9,1.1,0,7.7,0,15,0,22.3,0,1.8-.6,3.5-.9,5.3h-12Z"/>
  <path class="cls-1" d="M926,72c-.6-1.5-1.6-3-1.7-4.5-.2-6.8,0-13.6,0-20.4,0-8.8.3-17.6.3-26.4,0-4.6-.2-9.3-.2-13.9,0-1.3.3-2.5.6-4,4.4-1.1,8.4-1.2,12.8.2.1,1.5.3,2.9.4,4.4,0,5.5,0,11,0,16.5,0,1.9.7,3.7,1.1,5.7,10-.5,19.4,1.1,29.3-.7V1.7c4.7-1.6,8.7-.7,13.2-.8.3,2.3.8,4.2.8,6.1,0,19.6,0,39.3,0,58.9,0,2.2,0,4.3-1.8,6h-11c-.4-1.6-1.1-3.1-1.2-4.7-.1-6.3,0-12.6,0-19,0-1.6-.7-3.3-1-4.7-10.6-1.2-25.5-.8-29.3,1,0,1.6-.3,3.4-.3,5.2,0,5.7,0,11.3-.1,17,0,1.7-.7,3.5-1.1,5.2h-11Z"/>
  <path class="cls-1" d="M1080,72c-.3-5.6-.8-11.2-.8-16.8,0-16.1,0-32.3.1-48.4,0-1.7.4-3.5.7-5.7,14.8,0,29.1-.5,43.8.2v13.1c-10,1.4-19.9-.3-30.1,1-1.1,4.4-.5,8.6-.6,13.5,2.4.3,4.4.7,6.5.8,6.2,0,12.3,0,18.5,0,1.6,0,3.3.2,5.2.3,1.1,4.3,1,8.3.1,13.1-9.8.1-19.5.2-29.4.3-1.4,5-1.2,9.5-.1,14.6,5.3,0,10.2,0,15.2,0,4.8,0,9.5.1,14.7.2.2,5.1,1.2,9.5-.8,13.8h-43Z"/>
  <path class="cls-1" d="M1018,72c-.3-5.1-.7-10.2-.8-15.3,0-16.3,0-32.6,0-48.9,0-2.1.4-4.1.7-6.3,1.9-.2,3.2-.6,4.5-.6,10.5,0,21,.1,31.5,0,3.5,0,6.1,1.2,8.1,4,1,1.3,2,2.7,3.1,3.9,2.7,2.8,3.8,6.1,3.8,10-.1,15.6,0,31.3,0,46.9,0,2.1-.6,4.2-.8,6.3h-12c-.4-1.9-1-3.8-1-5.7,0-13.6,0-27.3,0-40.9,0-2,0-4-.2-6-.3-2.3-1.6-4.3-4-4.4-6.2-.2-12.5,0-19.4,0,0,3.4-.2,6.2-.2,8.9,0,14.3,0,28.6,0,42.9,0,1.7-.7,3.5-1,5.2h-12Z"/>
  <path class="cls-1" d="M610,72c-.5-1.7-1.4-3.4-1.4-5.1,0-20.3,0-40.6.1-60.9,0-1.3.2-2.6.4-4.7,14.4-.7,28.6-.2,43.1-.3,1.8,4.4.9,8.6.9,13.2-5.2,1.5-10.2.4-15,.6-4.8.2-9.6,0-14.8,0-1.1,4.9-.9,9.3-.6,14.5,10.2.1,19.8.2,29.3.3,1.9,5.1,2,6.3.6,13.3-9.5.9-19.3-.2-28.8.6-2,4.5-2.1,8.4-.2,14.2,9.5,1.1,19.3-.4,29.5.9-.2,4.9,1.4,9.3-1.2,13.5h-42Z"/>
  <path class="cls-1" d="M386,72c-.3-1.8-1-3.5-1-5.3,0-20,0-39.9,0-59.9,0-1.7.4-3.5.6-5.4,1.8-.2,3.1-.5,4.3-.5,10.5,0,21,.2,31.4,0,3.6,0,6,1.3,8.1,3.9,1.9,2.5,4,4.9,6.4,7.9.2,5.1.6,10.7.7,16.3.1,6.9.1,13.9,0,20.8,0,5.9-.2,11.9-.4,17.8,0,1.4-.8,2.8-1.2,4.2h-11c-.4-1.9-1.2-3.8-1.2-5.6,0-13.8,0-27.6,0-41.4,0-1.7,0-3.3-.4-5-.7-4-2-5.1-6-5.2-4.6,0-9.3,0-14,0-1.1,0-2.2.5-3.7.8,0,2.2,0,4.2,0,6.1,0,13.6.1,27.2,0,40.9,0,3.1-.5,6.2-.8,9.3h-12Z"/>
  <path class="cls-1" d="M867,72c-3.1-3.2-6.4-6.3-9.2-9.7-1.2-1.4-1.8-3.6-1.8-5.5-.1-13.5-.1-27,0-40.5,0-2,.9-4.3,2-6,1.9-2.7,4.1-5.3,6.7-7.4,1.4-1.2,3.6-1.8,5.5-1.8,10-.2,20-.1,30-.1.5,0,1,0,1.5,0,5.4,1.6,8,6.3,11,10.4,2.2,3,1.8,6.6.4,10.3h-11.6c-.4-.3-.7-.5-.8-.8-1.9-6-2-6-8.4-6-5.2,0-10.3-.1-15.5,0-2,0-4.1.7-6.5,1.1-.7,13.7-.6,26.8-.2,40.3,2.1.7,3.7,1.7,5.4,1.6,7.9-.3,15.9,1.3,23.5-1.1.8-2.1,1.4-3.8,2.1-5.7,4.2-.1,8.3-.8,12.4.5,1,4.7.9,8.9-2.4,12.3-2.6,2.7-5.4,5.4-8,8.1-12,0-24,0-36,0Z"/>
  <path class="cls-1" d="M498,72c-1.7-1.7-1.8-3.7-1.8-6,0-15.1,0-30.3,0-45.4,0-1.6-.2-3.2-.4-5.4-5.9-.2-11.5-.3-17.1-.5-1.5-4.5-.5-8.5-.7-12.7,1.3-.5,2.2-1.1,3.1-1.1,15.9,0,31.8,0,48.1,0,.9,5,1.1,9.3-.4,14.1h-18.2c-.2,2.3-.5,4-.5,5.8,0,14.6,0,29.3,0,43.9,0,2.4-.7,4.8-1.1,7.3h-11Z"/>
  <path class="cls-1" d="M70,72c-.4-1.6-1-3.2-1-4.7,0-20.3,0-40.6,0-60.9,0-1.6.4-3.2.7-5h12.7c.2,2.5.6,4.8.6,7,0,15,0,30,0,44.9,0,1.3.2,2.6.3,4.2,1.5.2,2.8.5,4.1.5,7.2,0,14.3,0,21.5.1,1.6,0,3.1.4,5.1.7,0,3.7.2,6.8,0,9.9,0,1.1-1.2,2.2-1.8,3.3h-42Z"/>
  <path class="cls-2" d="M1030,72c.3-1.7,1-3.5,1-5.2,0-14.3,0-28.6,0-42.9,0-2.8.1-5.5.2-8.9,6.9,0,13.2-.1,19.4,0,2.4,0,3.7,2.1,4,4.4.3,2,.2,4,.2,6,0,13.6,0,27.3,0,40.9,0,1.9.7,3.8,1,5.7h-26Z"/>
  <path class="cls-2" d="M398,72c.3-3.1.8-6.2.8-9.3,0-13.6,0-27.2,0-40.9,0-2,0-3.9,0-6.1,1.5-.3,2.6-.8,3.7-.8,4.6,0,9.3,0,14,0,4,0,5.3,1.1,6,5.2.3,1.6.4,3.3.4,5,0,13.8,0,27.6,0,41.4,0,1.9.8,3.8,1.2,5.6h-26Z"/>
  <path class="cls-2" d="M741,72c.4-2.4,1.1-4.8,1.1-7.2,0-13.6,0-27.3,0-40.9,0-6.9,2-9,8.8-8.9,1.5,0,3,0,4.5,0,4.6.2,6.4,1.8,6.6,6.4.2,5.2.1,10.3.1,15.5,0,9.6-.1,19.3,0,28.9,0,2.1.7,4.2,1,6.3h-22Z"/>
  <path class="cls-2" d="M707,72c1.9-1.8,1.8-4.2,1.8-6.5,0-15.1,0-30.2,0-45.3,0-1.4,0-2.9,0-4.8,6.4-.5,12.2-1.3,18.6,1.2.3,2.7.7,5.4.8,8.1.1,13.9,0,27.9.2,41.8,0,1.8,1.1,3.7,1.6,5.5h-23Z"/>
  <path class="cls-1" d="M362,72c-.4-1.7-1.1-3.5-1.1-5.2,0-20.1,0-40.2,0-60.3,0-1.6.2-3.2.4-5.2h12.9c.2,1.9.5,3.5.5,5.1,0,20.3.1,40.6,0,60.8,0,1.6-.5,3.2-.8,4.8h-12Z"/>
  <path class="cls-1" d="M995,72c-1.6-1.5-1.9-3.3-1.9-5.4,0-20.2,0-40.3,0-60.5,0-1.6.4-3.2.6-4.9h12.6c.2,1.6.6,2.8.6,4.1,0,20.7.1,41.3,0,62,0,1.6-.7,3.2-1,4.8h-11Z"/>
  <path class="cls-2" d="M937,72c.4-1.7,1.1-3.5,1.1-5.2.2-5.6,0-11.3.1-17,0-1.8.2-3.6.3-5.2,3.7-1.8,18.7-2.2,29.3-1,.3,1.4.9,3,1,4.7.1,6.3,0,12.6,0,19,0,1.6.8,3.1,1.2,4.7h-33Z"/>
  <path class="cls-2" d="M553,72c.3-1.8.8-3.5.9-5.3,0-7.3,0-14.6,0-22.3,1.5-.5,2.7-1.2,3.9-1.1,8.6,0,17.2-.7,26.4.5,0,4.3,0,8,0,11.8,0,3.8-.2,7.7,0,11.5.1,1.7,1.1,3.3,1.8,4.9h-33Z"/>
  <path class="cls-2" d="M799,72c2.2-4.6.9-9.4,1.2-14.1.1-2.3-.5-4.7,1.7-6.8h28.9c.3,1.9.9,3.6.9,5.3.1,3.3-.2,6.6,0,9.9.1,1.9.8,3.8,1.2,5.7h-34Z"/>
  <path class="cls-2" d="M0,70c.7.7,1.3,1.3,2,2H0C0,71.3,0,70.7,0,70Z"/>
  <path class="cls-2" d="M15.5,29.8c-2.2-4.9-1-9.4-1.4-14,1.7-.4,2.6-.7,3.6-.7,6.7,0,13.3,0,20,0,2.8,0,5.7.3,6.6,3.4.9,3.2,1.3,6.7-.9,9.6-.7.9-2.2,1.7-3.4,1.8-8,.2-15.9,0-24.5,0Z"/>
  <path class="cls-2" d="M15.6,58.2c-2.4-4.5-1-8.8-1.5-13.1,1-.6,1.9-1.5,2.7-1.6,8.6,0,17.1,0,25.3.2,3.7,4.5,2.9,8.6,1.3,13.5-9.1,2-18.5.4-27.8,1Z"/>
  <path class="cls-2" d="M830.3,15.7c2.6,6.9,1.2,13.7,1.1,20.2-5.5,1.4-26.4,1.3-31.1-.2-.3-5.3-.6-10.9.1-16.5.4-2.9,2.8-4.9,5.6-5,7-.2,13.9,0,20.9.2.9,0,1.9.6,3.4,1.2Z"/>
  <path class="cls-2" d="M275.9,15.2h26.3c2.9,1.4,3.3,3.9,3.4,6.1.1,10.1.1,20.3,0,30.5,0,1.5-.6,2.9-1,5.1-9.2,2.6-18.8.3-28.4,1.3-.5-1.6-1.1-2.7-1.1-3.7,0-12.1,0-24.3.1-36.4,0-.8.4-1.6.7-2.9Z"/>
  <path class="cls-2" d="M207,16.6c1.9-.6,3.5-1.6,5.2-1.7,13.9-.9,20.2-.4,24.7,2.3.1,12.7.5,25.9-.3,39.3-2,.6-3.4,1.4-4.8,1.4-6.7.1-13.3.2-20,0-3.3,0-4.8-1.3-4.8-4.5-.2-12,0-23.9,0-36.9Z"/>
  <path class="cls-2" d="M139.5,56.7c-1.7-4.6-2-34.8-.3-40.3,1.2-.4,2.7-1.4,4.2-1.4,8,.3,16.2-1,24.7,1.1,1,13.5.9,26.7.3,40.1-1.9.7-3.4,1.5-4.9,1.7-7.8.9-20.4.2-23.9-1.2Z"/>
  <metadata>
    <sfw xmlns="http://ns.adobe.com/SaveForWeb/1.0/">
      <slices/>
      <sliceSourceBounds x="-513" y="14" width="1125" height="72" bottomLeftOrigin="true"/>
    </sfw>
  </metadata>
</svg>