<?xml version="1.0" encoding="UTF-8"?>
<svg id="Layer_1" data-name="Layer 1" xmlns="http://www.w3.org/2000/svg" version="1.1" viewBox="0 0 300 120">
  <defs>
    <style>
      .cls-1 {
        fill: #b85c3d;
        stroke-width: 0px;
      }
    </style>
  </defs>
  <g id="Full_Logo" data-name="Full Logo">
    <g id="Logomark">
      <path class="cls-1" d="M38.4,74.6c-.1-1-.5-1.7-.9-2.4-2.2-3.9-4.4-7.8-6.6-11.7-.7-1.2-1.4-2.4-1.6-3.8-.1-.9-.2-1.8,0-2.6.6-2.6,3.1-3.8,5.5-2.9,1.3.5,2.4,1.3,3.2,2.5.7,1,1.3,2,2,3,1.9,2.9,3.8,5.8,5.7,8.7,2.1,3,4.6,5.7,7.2,8.3,3.7,3.5,5.7,7.8,6.7,12.8.9,4.1.9,8.3.7,12.5-.1,3-.4,5.9-.5,8.8,0,.2,0,.4,0,.6-.7.3-18.1.4-20.2.1,0-.3,0-.7,0-1,0-2.2,0-4.5-.2-6.7-.1-3.5-1.5-6.6-4-9.1-3.8-3.8-7.5-7.7-11.2-11.5-1.5-1.6-2.9-3.3-3.9-5.3-1.1-2.2-1.5-4.6-1.7-7-.3-3.5-.6-7-.7-10.6-.2-4.1.2-8.1,1.5-12.1,2.7-8.2,5.4-16.4,8.1-24.7.1-.4.3-.9.6-1.3.6-1.1,1.5-1.6,2.7-1.5,1.2,0,2,.8,2.4,1.9.4,1,.4,2.1.2,3.1-1,4.3-2,8.5-3,12.8-.8,3.5-1.7,7.1-2.4,10.6-.4,1.7-.5,3.4-.8,5-.2,1-.5,1.9-.6,2.9-.4,2.5.2,4.7,1.4,6.8,1.5,2.6,3,5.2,4.4,7.8,1.3,2.3,3,4.3,5.3,5.8.2.1.4.2.8.5Z"/>
      <path class="cls-1" d="M91.1,74.7c.4-.2.7-.4.9-.5,2.1-1.4,3.7-3.3,5-5.4,1.6-2.8,3.3-5.6,4.8-8.4,1.4-2.5,1.8-5.2,1-8-.4-1.4-.6-2.8-.8-4.2-.3-2.8-1.1-5.5-1.7-8.3-1.3-5.6-2.6-11.2-4-16.7-.2-1-.4-2.1-.2-3.1.1-.8.4-1.5,1.1-2,1.5-1.2,3.5-.7,4.3,1,.6,1.2,1,2.5,1.4,3.8,2.2,6.5,4.3,13,6.5,19.5,1.8,5.3,2.4,10.7,2.1,16.2-.2,3.3-.5,6.6-.7,9.8-.3,3.8-1.8,7.1-4.3,10-3,3.6-6.3,6.9-9.7,10.2-1.1,1.1-2.1,2.1-3.1,3.2-2.3,2.3-3.4,5.1-3.5,8.3-.1,2.3-.1,4.6-.2,6.9,0,.4,0,.7,0,1.2h-20.3c0-.3-.1-.6-.1-.8-.2-4.4-.5-8.7-.6-13.1,0-3.6.4-7.2,1.5-10.8,1.1-3.8,3-7,5.8-9.8,1.3-1.3,2.7-2.7,4-4.1,2-2.2,3.7-4.7,5.3-7.2,2-3,4-6,6.1-9,.6-1,1.5-1.7,2.5-2.2.8-.4,1.6-.6,2.5-.5,2.2.3,3.7,1.8,3.8,4.1,0,1.4-.2,2.6-.9,3.8-.9,1.7-1.9,3.4-2.9,5.2-1.4,2.6-2.9,5.1-4.3,7.7-.5.9-1,1.8-1.2,3.1Z"/>
      <path class="cls-1" d="M64.7,45.7c-.2.5-.3,1.1-.5,1.6-1.6,5.5-3.2,10.9-4.9,16.4-.3.9-.6,1.8-1.2,2.5-1.8,2.3-5.1,2.4-7.1.2-.2-.3-.5-.6-.7-.9-2.8-4.3-5.6-8.6-8.4-12.9-1.4-2.2-2.3-4.5-2.1-7.1,0-1.1.2-2.2.5-3.2,1.8-7.1,3.7-14.3,5.5-21.4,0-.3.2-.7.3-1,.5-1.1,1.4-1.6,2.5-1.6,1.1,0,1.9.5,2.3,1.5.5,1.1.5,2.3.2,3.5-.7,2.7-1.4,5.4-2.1,8.2-.8,3.1-1.6,6.3-2.5,9.4-.7,2.4-.4,4.7.8,6.8,1.3,2.2,2.6,4.3,4,6.5.7,1.1,1.4,2.2,2.1,3.3,0,.1.2.2.4.4.1-.4.3-.7.4-1.1,1.5-4.9,2.9-9.8,4.4-14.7.7-2.4,1.4-4.8,2.2-7.2.3-.9.6-1.7,1.1-2.5.6-1.1,1.5-1.6,2.7-1.6,1.2,0,2.2.6,2.8,1.7.7,1.3,1.2,2.5,1.6,3.9,2,6.8,4.1,13.6,6.1,20.4.1.3.2.7.4,1.2.3-.4.5-.7.7-1,1.6-2.6,3.3-5.1,4.9-7.7.9-1.4,1.6-2.8,1.9-4.4.2-1,.3-2.1,0-3.1-1.1-4-2.1-8.1-3.2-12.1-.6-2.1-1.1-4.2-1.6-6.3-.3-1.1-.4-2.2,0-3.3.7-2,2.7-2.2,4-1.4.6.4.9,1,1.1,1.6.4,1.4.8,2.8,1.2,4.2,1.5,5.8,3,11.6,4.5,17.4.6,2.2.8,4.4.2,6.6-.3,1.4-1,2.7-1.7,3.9-2.8,4.3-5.6,8.5-8.4,12.8-.8,1.3-1.9,2.2-3.4,2.5-2.2.4-4.4-.7-5.1-2.9-.8-2.1-1.4-4.3-2-6.5-1.2-4.1-2.4-8.2-3.7-12.3,0-.2-.1-.4-.2-.5,0,0-.2,0-.2,0Z"/>
      <path class="cls-1" d="M99.5,48.7c-3.5-1-3.9-.9-7.3.4,0-.5.1-.9.2-1.3.2-1.8,0-3.6-.3-5.4-1.9-7.5-3.8-15-5.6-22.5-.3-1.2-.6-2.4-.8-3.7-.2-.9,0-1.8.3-2.7.5-1.1,1.3-1.8,2.5-1.9,1.3,0,2.1.6,2.7,1.7.3.6.5,1.3.7,2,2.4,10.3,4.9,20.6,7.3,30.9.2.8.3,1.6.5,2.5Z"/>
      <path class="cls-1" d="M37.6,49.2c-2.5-1.4-4.9-1.6-7.4-.5.1-.8.2-1.5.4-2.1,1.6-7.1,3.3-14.1,5-21.2.8-3.3,1.6-6.5,2.4-9.8.2-.8.4-1.6.7-2.3.5-1.2,1.5-1.8,2.7-1.8.8,0,1.5.4,2,1.1.7.9,1,1.9.8,3.1-.2,1.2-.5,2.5-.8,3.7-1.9,7.5-3.8,15-5.6,22.5-.6,2.3-.9,4.7-.1,7.4Z"/>
      <path class="cls-1" d="M52.2,50.4c-1.6-1.9-2.9-3.8-3.2-6.3-.1-1,0-2,.3-2.9.9-3.3,1.9-6.7,2.8-10,.3-.9.7-1.7,1.8-1.8,1,0,1.8.5,2.3,1.6.4.8.4,1.6.2,2.5-.4,1.8-.8,3.6-1.3,5.4-.8,3.5-1.7,6.9-2.6,10.4,0,.4-.2.7-.3,1.1Z"/>
      <path class="cls-1" d="M77.5,50.6c-.1-.3-.2-.5-.2-.6-1.3-5.3-2.6-10.6-3.9-16-.3-1.1-.3-2.2.3-3.3.2-.4.5-.7.8-1,1.1-.8,2.5-.4,2.9.9.4,1.1.7,2.3,1,3.5.7,2.3,1.3,4.7,2,7,.6,2,.3,4-.7,5.8-.7,1.1-1.4,2.3-2.1,3.6Z"/>
    </g>
    <g>
      <path class="cls-1" d="M122.8,11.6h6.8l3.1,34.4h.1l3.3-34.4h7.7l3.3,34.4h.1l3.1-34.4h6.1l-4.5,44.8h-8.8l-3.2-30.2h-.1l-3.2,30.2h-9.3l-4.5-44.8Z"/>
      <path class="cls-1" d="M160.1,11.6h7v18.2h7.6V11.6h7v44.8h-7v-20.2h-7.6v20.2h-7V11.6Z"/>
      <path class="cls-1" d="M192.4,11.6h9.5l7.3,44.8h-7l-1.3-8.9h0c0,.1-8,.1-8,.1l-1.3,8.8h-6.5l7.3-44.8ZM200.1,41.6l-3.1-22.1h-.1l-3.1,22.1h6.3Z"/>
      <path class="cls-1" d="M215.2,18h-7.4v-6.4h21.8v6.4h-7.4v38.4h-7V18Z"/>
      <path class="cls-1" d="M122.8,63.6h6.8l3.1,34.4h.1l3.3-34.4h7.7l3.3,34.4h.1l3.1-34.4h6.1l-4.5,44.8h-8.8l-3.2-30.2h-.1l-3.2,30.2h-9.3l-4.5-44.8Z"/>
      <path class="cls-1" d="M160.1,63.6h19.2v6.4h-12.2v11.8h9.7v6.4h-9.7v13.8h12.2v6.4h-19.2v-44.8Z"/>
      <path class="cls-1" d="M191.9,63.6h6.8l3.1,34.4h.1l3.3-34.4h7.7l3.3,34.4h.1l3.1-34.4h6.1l-4.5,44.8h-8.8l-3.2-30.2h-.1l-3.2,30.2h-9.3l-4.5-44.8Z"/>
      <path class="cls-1" d="M229.2,63.6h7v44.8h-7v-44.8Z"/>
      <path class="cls-1" d="M241.5,63.6h7v38.4h11.6v6.4h-18.6v-44.8Z"/>
      <path class="cls-1" d="M263.5,63.6h7v38.4h11.6v6.4h-18.6v-44.8Z"/>
    </g>
  </g>
  <metadata>
    <sfw xmlns="http://ns.adobe.com/SaveForWeb/1.0/">
      <slices/>
      <sliceSourceBounds x="1487.64" y="251.6" width="264.24" height="96.8" bottomLeftOrigin="true"/>
    </sfw>
  </metadata>
</svg>