<?xml version="1.0" encoding="UTF-8"?>
<svg id="Layer_1" data-name="Layer 1" xmlns="http://www.w3.org/2000/svg" version="1.1" viewBox="0 0 600 120">
  <defs>
    <style>
      .cls-1 {
        fill: #fff;
        stroke-width: 0px;
      }
    </style>
  </defs>
  <g id="Full_Logo" data-name="Full Logo">
    <g id="Logomark">
      <path class="cls-1" d="M47.4,75c-.2-1-.5-1.8-.9-2.5-2.2-4-4.4-8-6.7-12-.7-1.2-1.4-2.5-1.6-3.9,0-.9-.2-1.8,0-2.7.6-2.6,3.1-3.9,5.7-2.9,1.3.5,2.4,1.4,3.2,2.5.7,1,1.4,2,2,3,1.9,2.9,3.9,5.9,5.8,8.8,2.1,3.1,4.7,5.8,7.3,8.4,3.7,3.6,5.8,8,6.9,13,.9,4.2.9,8.4.7,12.7,0,3-.4,6-.6,9v.6c-.7.3-18.4.4-20.6,0v-1.1c0-2.3,0-4.6-.2-6.8,0-3.6-1.5-6.7-4.1-9.3-3.8-3.9-7.7-7.8-11.4-11.8-1.5-1.6-2.9-3.4-4-5.4-1.1-2.2-1.5-4.7-1.7-7.1-.3-3.6-.6-7.2-.7-10.8-.2-4.2.2-8.3,1.5-12.3,2.7-8.4,5.5-16.7,8.3-25.1.2-.5.3-.9.6-1.3.6-1.1,1.5-1.6,2.7-1.6s2,.8,2.5,1.9c.4,1,.4,2.1.2,3.2-1,4.3-2.1,8.7-3.1,13-.8,3.6-1.7,7.2-2.5,10.8-.4,1.7-.5,3.4-.8,5.1-.2,1-.5,2-.6,2.9-.4,2.5.2,4.8,1.4,7,1.5,2.7,3,5.3,4.5,7.9,1.4,2.4,3.1,4.4,5.4,5.9.2,0,.4.2.8.5v.3Z"/>
      <path class="cls-1" d="M101.1,75c.4-.2.7-.4.9-.5,2.1-1.5,3.8-3.3,5.1-5.5,1.7-2.8,3.3-5.7,4.9-8.5,1.4-2.5,1.8-5.2,1.1-8.1-.4-1.4-.6-2.8-.8-4.3-.3-2.9-1.1-5.6-1.7-8.4-1.3-5.7-2.7-11.4-4-17.1-.2-1.1-.4-2.1-.2-3.2,0-.8.4-1.5,1.1-2.1,1.5-1.2,3.6-.8,4.4,1,.6,1.3,1,2.6,1.4,3.9,2.2,6.6,4.3,13.3,6.6,19.9,1.9,5.4,2.5,10.9,2.1,16.6-.2,3.3-.5,6.7-.7,10-.3,3.9-1.8,7.2-4.3,10.2-3.1,3.6-6.5,7-9.8,10.4-1.1,1.1-2.1,2.2-3.2,3.3-2.3,2.4-3.4,5.2-3.6,8.5,0,2.3,0,4.7-.2,7.1v1.2h-20.7c0-.3,0-.6,0-.8-.2-4.5-.5-8.9-.7-13.4,0-3.7.4-7.4,1.5-11,1.1-3.8,3.1-7.2,5.9-10s2.7-2.7,4.1-4.2c2.1-2.3,3.7-4.8,5.4-7.3,2.1-3.1,4.1-6.1,6.2-9.2.7-1,1.5-1.7,2.6-2.2.8-.4,1.6-.6,2.5-.5,2.3.3,3.7,1.9,3.9,4.2,0,1.4-.2,2.7-.9,3.9-.9,1.8-2,3.5-2.9,5.2-1.5,2.6-3,5.2-4.4,7.9-.5.9-1,1.9-1.2,3.1h-.3Z"/>
      <path class="cls-1" d="M74.1,45.5c-.2.6-.3,1.1-.5,1.7-1.7,5.6-3.3,11.1-5,16.7-.3.9-.6,1.8-1.2,2.5-1.8,2.4-5.2,2.4-7.2.2-.3-.3-.5-.6-.7-.9-2.9-4.4-5.7-8.7-8.6-13.1-1.4-2.2-2.3-4.6-2.1-7.2,0-1.1.2-2.2.5-3.3,1.9-7.3,3.8-14.5,5.7-21.8,0-.3.2-.7.3-1,.5-1.1,1.4-1.6,2.6-1.6s1.9.5,2.4,1.6c.5,1.2.5,2.4.2,3.6-.7,2.8-1.5,5.5-2.2,8.3-.9,3.2-1.7,6.4-2.6,9.6-.7,2.4-.4,4.7.9,6.9,1.3,2.2,2.7,4.4,4.1,6.6.7,1.1,1.5,2.3,2.2,3.4,0,0,.2.2.4.4.2-.4.3-.8.4-1.1l4.5-15c.7-2.4,1.5-4.9,2.2-7.3.3-.9.6-1.8,1.1-2.6.6-1.1,1.5-1.7,2.8-1.6,1.3,0,2.2.6,2.8,1.7.7,1.3,1.3,2.6,1.7,4,2,6.9,4.1,13.8,6.2,20.8,0,.4.2.7.4,1.2.3-.4.5-.7.7-1,1.7-2.6,3.4-5.2,5-7.9.9-1.4,1.6-2.8,2-4.4.2-1.1.3-2.1,0-3.2-1.1-4.1-2.2-8.2-3.3-12.3-.6-2.1-1.1-4.3-1.7-6.4-.3-1.1-.4-2.2,0-3.4.7-2,2.7-2.2,4-1.5.6.4,1,1,1.2,1.7.4,1.4.8,2.9,1.2,4.3,1.5,5.9,3.1,11.8,4.6,17.8.6,2.2.8,4.5.2,6.8-.4,1.4-1,2.7-1.8,4-2.8,4.3-5.7,8.7-8.5,13-.8,1.3-1.9,2.3-3.5,2.5-2.3.4-4.5-.8-5.2-2.9-.8-2.2-1.4-4.4-2.1-6.6-1.3-4.2-2.5-8.3-3.7-12.5,0-.2-.2-.4-.2-.5h-.2v-.2Z"/>
      <path class="cls-1" d="M109.6,48.5c-3.5-1-3.9-.9-7.5.4,0-.5,0-.9.2-1.3.3-1.8,0-3.7-.4-5.4-1.9-7.6-3.8-15.3-5.7-22.9-.3-1.2-.6-2.5-.9-3.7-.2-.9,0-1.9.3-2.7.5-1.1,1.3-1.9,2.6-2,1.3,0,2.2.6,2.7,1.7.3.6.5,1.4.7,2.1,2.5,10.5,5,21,7.4,31.5.2.8.3,1.7.5,2.6v-.3Z"/>
      <path class="cls-1" d="M46.5,49.1c-2.6-1.4-5-1.6-7.6-.5,0-.8.2-1.5.4-2.1,1.7-7.2,3.4-14.4,5-21.6.8-3.3,1.6-6.7,2.4-10,.2-.8.4-1.6.8-2.4.5-1.2,1.6-1.9,2.7-1.8.8,0,1.5.4,2,1.1.7.9,1,2,.9,3.1-.2,1.3-.5,2.5-.8,3.7-1.9,7.6-3.8,15.3-5.7,22.9-.6,2.4-.9,4.8,0,7.5h0Z"/>
      <path class="cls-1" d="M61.4,50.3c-1.6-1.9-2.9-3.9-3.3-6.4,0-1,0-2,.3-3,.9-3.4,1.9-6.8,2.8-10.2.3-1,.7-1.8,1.8-1.9,1,0,1.9.5,2.4,1.6.4.8.4,1.7.2,2.5-.4,1.9-.8,3.7-1.3,5.5-.9,3.5-1.7,7-2.6,10.6,0,.4-.2.7-.3,1.1v.2Z"/>
      <path class="cls-1" d="M87.2,50.5c0-.4-.2-.5-.2-.6-1.3-5.4-2.7-10.8-4-16.3-.3-1.1-.3-2.3.3-3.3.2-.4.5-.8.9-1,1.2-.9,2.5-.4,3,.9.4,1.2.7,2.4,1.1,3.6.7,2.4,1.3,4.8,2,7.2.6,2.1.3,4-.7,5.9-.7,1.2-1.4,2.3-2.2,3.7h-.2Z"/>
    </g>
    <g id="Wordmark">
      <path class="cls-1" d="M140.7,27.1h10.5l4.9,53.6h.2l5.2-53.6h11.9l5.2,53.6h.2l4.9-53.6h9.5l-7.1,69.7h-13.6l-4.9-47h-.2l-4.9,47h-14.6l-7.1-69.7h0Z"/>
      <path class="cls-1" d="M198.8,27.1h10.9v28.4h11.7v-28.4h10.9v69.7h-10.9v-31.4h-11.7v31.4h-10.9V27.1Z"/>
      <path class="cls-1" d="M249.1,27.1h14.8l11.4,69.7h-10.9l-2-13.8v.2h-12.4l-2,13.6h-10.2l11.4-69.7h0ZM261,73.7l-4.9-34.5h-.2l-4.8,34.5h9.9,0Z"/>
      <path class="cls-1" d="M284.5,37.1h-11.4v-10h33.8v10h-11.4v59.8h-10.9v-59.8h0Z"/>
      <path class="cls-1" d="M325.6,27.1h10.5l4.9,53.6h.2l5.2-53.6h11.9l5.2,53.6h.2l4.9-53.6h9.5l-7.1,69.7h-13.6l-4.9-47h-.2l-4.9,47h-14.6l-7.1-69.7h0Z"/>
      <path class="cls-1" d="M383.6,27.1h29.9v10h-18.9v18.4h15v10h-15v21.4h18.9v10h-29.9V27.1h0Z"/>
      <path class="cls-1" d="M433.1,27.1h10.5l4.9,53.6h.2l5.2-53.6h11.9l5.2,53.6h.2l4.9-53.6h9.5l-7.1,69.7h-13.6l-4.9-47h-.2l-4.9,47h-14.6l-7.1-69.7h0Z"/>
      <path class="cls-1" d="M491.1,27.1h10.9v69.7h-10.9V27.1Z"/>
      <path class="cls-1" d="M510.3,27.1h10.9v59.8h18v10h-29V27.1Z"/>
      <path class="cls-1" d="M544.5,27.1h10.9v59.8h18v10h-29V27.1Z"/>
    </g>
  </g>
  <metadata>
    <sfw xmlns="http://ns.adobe.com/SaveForWeb/1.0/">
      <slices/>
      <sliceSourceBounds x="26.5" y="10.65" width="547" height="98.71" bottomLeftOrigin="true"/>
    </sfw>
  </metadata>
</svg>